<svg xmlns="http://www.w3.org/2000/svg" xmlns:xlink="http://www.w3.org/1999/xlink" aria-hidden="true" role="img" class="iconify iconify--logos" width="31.88" height="32" preserveAspectRatio="xMidYMid meet" viewBox="0 0 256 257"><defs><linearGradient id="IconifyId1813088fe1fbc01fb466" x1="-.828%" x2="57.636%" y1="7.652%" y2="78.411%"><stop offset="0%" stop-color="#FF00FF"></stop><stop offset="100%" stop-color="#FF7300"></stop></linearGradient></defs><path fill="url(#IconifyId1813088fe1fbc01fb466)" d="M255.153 37.938L134.897 252.976c-2.883 5.084-10.017 5.084-12.9 0L.846 37.938c-2.883-5.084-.7-10.966 4.942-12.972l131.07-42.352c5.937-1.906 12.417 1.637 15.13 7.863L254.25 25.066c3.58 7.772.556 17.145-7.097 12.872z"></path><path fill="#000" d="M185.432.063L96.44 17.557a6.384 6.384 0 0 0-5.061 6.384v131.324c0 3.661 2.25 6.923 5.61 8.221l50.86 24.203a6.384 6.384 0 0 0 8.368-5.973V34.852a6.384 6.384 0 0 1 8.294-6.282l49.821 10.56a6.696 6.696 0 0 0 6.905-7.12V6.769a6.705 6.705 0 0 0-7.568-6.706z"></path></svg>
